<?xml version="1.0" encoding="iso-8859-1"?>
<!-- Uploaded to: SVG Repo, www.svgrepo.com, Generator: SVG Repo Mixer Tools -->
<svg height="800px" width="800px" version="1.1" id="Capa_1" xmlns="http://www.w3.org/2000/svg" xmlns:xlink="http://www.w3.org/1999/xlink" 
	 viewBox="0 0 15.105 15.105" xml:space="preserve">
<g>
	<g>
		<path style="fill:#030104;" d="M13.156,3.152l-2.695-3.017C10.384,0.049,10.274,0,10.158,0H2.252C2.028,0,1.847,0.182,1.847,0.405
			v2.617v3.937V14.7c0,0.224,0.181,0.405,0.405,0.405h10.602c0.223,0,0.404-0.182,0.404-0.405V3.421
			C13.258,3.322,13.222,3.226,13.156,3.152z M11.98,14.088H3.065v-7.13V3.021V1.073h6.058l-0.01,3.026
			c0,0.12,0.047,0.235,0.132,0.319C9.329,4.502,9.443,4.55,9.562,4.55l2.418-0.002V14.088z"/>
		<polygon style="fill:#030104;" points="5.674,5.771 5.897,6.788 7.004,6.26 7.022,6.26 7.022,10.858 8.333,10.858 8.333,5.057 
			7.209,5.057 		"/>
	</g>
</g>
</svg>